<svg width="24" height="24" viewBox="0 0 24 24" fill="none" xmlns="http://www.w3.org/2000/svg">
<g filter="url(#filter0_i_2761_4120)">
<path d="M21.5935 17.5036L18.0804 13.9905C17.5381 13.4482 16.6587 13.4482 16.1163 13.9905L14.7691 15.3377C14.5996 15.5073 14.3428 15.5512 14.1245 15.4519C11.2611 14.1477 9.24205 10.989 8.60523 9.88846C8.47553 9.6644 8.51229 9.38163 8.69533 9.19858L10.0099 7.88403C10.5522 7.34167 10.5522 6.46237 10.0099 5.91991L6.49673 2.40685C5.95436 1.86449 5.07506 1.86449 4.5327 2.40685L2.91402 4.02554C2.86178 4.08071 2.68359 4.30861 2.61585 4.4701C1.93398 5.69019 0.712981 9.40552 6.17133 15.3772C14.6531 24.6565 19.6115 21.3641 19.7569 21.2643C19.757 21.2643 19.7571 21.2642 19.7571 21.2642C19.7591 21.2628 19.7603 21.262 19.7603 21.262C19.8361 21.2115 19.9081 21.1531 19.9749 21.0863L21.5935 19.4677C22.1358 18.9253 22.1358 18.046 21.5935 17.5036Z" fill="#DA4935"/>
<path d="M21.5935 17.5036L18.0804 13.9905C17.5381 13.4482 16.6587 13.4482 16.1163 13.9905L14.7691 15.3377C14.5996 15.5073 14.3428 15.5512 14.1245 15.4519C11.2611 14.1477 9.24205 10.989 8.60523 9.88846C8.47553 9.6644 8.51229 9.38163 8.69533 9.19858L10.0099 7.88403C10.5522 7.34167 10.5522 6.46237 10.0099 5.91991L6.49673 2.40685C5.95436 1.86449 5.07506 1.86449 4.5327 2.40685L2.91402 4.02554C2.86178 4.08071 2.68359 4.30861 2.61585 4.4701C1.93398 5.69019 0.712981 9.40552 6.17133 15.3772C14.6531 24.6565 19.6115 21.3641 19.7569 21.2643C19.757 21.2643 19.7571 21.2642 19.7571 21.2642C19.7591 21.2628 19.7603 21.262 19.7603 21.262C19.8361 21.2115 19.9081 21.1531 19.9749 21.0863L21.5935 19.4677C22.1358 18.9253 22.1358 18.046 21.5935 17.5036Z" fill="url(#paint0_radial_2761_4120)" fill-opacity="0.2"/>
</g>
<defs>
<filter id="filter0_i_2761_4120" x="2.00024" y="1.37462" width="20" height="20.537" filterUnits="userSpaceOnUse" color-interpolation-filters="sRGB">
<feFlood flood-opacity="0" result="BackgroundImageFix"/>
<feBlend mode="normal" in="SourceGraphic" in2="BackgroundImageFix" result="shape"/>
<feColorMatrix in="SourceAlpha" type="matrix" values="0 0 0 0 0 0 0 0 0 0 0 0 0 0 0 0 0 0 127 0" result="hardAlpha"/>
<feOffset dy="-0.625384"/>
<feGaussianBlur stdDeviation="0.914624"/>
<feComposite in2="hardAlpha" operator="arithmetic" k2="-1" k3="1"/>
<feColorMatrix type="matrix" values="0 0 0 0 0.168896 0 0 0 0 0 0 0 0 0 0 0 0 0 0.35 0"/>
<feBlend mode="normal" in2="shape" result="effect1_innerShadow_2761_4120"/>
</filter>
<radialGradient id="paint0_radial_2761_4120" cx="0" cy="0" r="1" gradientUnits="userSpaceOnUse" gradientTransform="translate(5.30389 3.24661) rotate(58.3925) scale(19.0921 19.177)">
<stop stop-color="#FF0000" stop-opacity="0"/>
<stop offset="1" stop-color="#460D0D"/>
</radialGradient>
</defs>
</svg>
