<svg width="52" height="48" viewBox="0 0 52 48" fill="none" xmlns="http://www.w3.org/2000/svg">
<g filter="url(#filter0_i_2775_7048)">
<path d="M25.6107 0C11.4662 0 -1.14441e-05 10.12 -1.14441e-05 22.6035C-1.14441e-05 28.1775 2.28674 33.2793 6.0762 37.2203L6.08978 37.2342C6.73344 37.9086 6.80381 38.9462 6.25766 39.7017L1.52271 46.248C0.951912 47.0373 1.60843 48.1254 2.57285 47.9882L2.96291 47.9328C7.39281 47.3035 11.7309 46.144 15.8844 44.4798L16.0251 44.4234C16.6091 44.0866 17.3028 43.9987 17.9525 44.1784C20.3707 44.8463 22.9429 45.2075 25.6107 45.2075C39.7552 45.2075 51.2215 35.0875 51.2215 22.6035C51.2215 10.12 39.7552 0 25.6107 0Z" fill="white"/>
</g>
<path d="M17.5381 22.4524C17.5381 23.724 16.5072 24.7549 15.2356 24.7549C13.9644 24.7549 12.9335 23.724 12.9335 22.4524C12.9335 21.1808 13.9644 20.1499 15.2356 20.1499C16.5072 20.1499 17.5381 21.1808 17.5381 22.4524Z" fill="#ACACB9"/>
<path d="M27.6913 22.4524C27.6913 23.724 26.6604 24.7549 25.3888 24.7549C24.1176 24.7549 23.0867 23.724 23.0867 22.4524C23.0867 21.1808 24.1176 20.1499 25.3888 20.1499C26.6604 20.1499 27.6913 21.1808 27.6913 22.4524Z" fill="#ACACB9"/>
<path d="M37.8436 22.4524C37.8436 23.724 36.8128 24.7549 35.5412 24.7549C34.2699 24.7549 33.239 23.724 33.239 22.4524C33.239 21.1808 34.2699 20.1499 35.5412 20.1499C36.8128 20.1499 37.8436 21.1808 37.8436 22.4524Z" fill="#ACACB9"/>
<defs>
<filter id="filter0_i_2775_7048" x="0" y="-1.90581" width="51.2215" height="49.9058" filterUnits="userSpaceOnUse" color-interpolation-filters="sRGB">
<feFlood flood-opacity="0" result="BackgroundImageFix"/>
<feBlend mode="normal" in="SourceGraphic" in2="BackgroundImageFix" result="shape"/>
<feColorMatrix in="SourceAlpha" type="matrix" values="0 0 0 0 0 0 0 0 0 0 0 0 0 0 0 0 0 0 127 0" result="hardAlpha"/>
<feOffset dy="-1.90581"/>
<feGaussianBlur stdDeviation="2.59667"/>
<feComposite in2="hardAlpha" operator="arithmetic" k2="-1" k3="1"/>
<feColorMatrix type="matrix" values="0 0 0 0 0 0 0 0 0 0 0 0 0 0 0 0 0 0 0.25 0"/>
<feBlend mode="normal" in2="shape" result="effect1_innerShadow_2775_7048"/>
</filter>
</defs>
</svg>
