<svg width="24" height="24" viewBox="0 0 24 24" fill="none" xmlns="http://www.w3.org/2000/svg">
<g filter="url(#filter0_i_3004_10770)">
<path d="M19.1193 20.4037C19.1193 20.733 18.8523 21 18.523 21H5.59629C5.26697 21 5 20.733 5 20.4037V4.71455C5 4.38523 5.26697 4.11826 5.59629 4.11826H18.523C18.8523 4.11826 19.1193 4.38523 19.1193 4.71455V20.4037Z" fill="url(#paint0_linear_3004_10770)"/>
</g>
<path d="M17.738 19.1672C17.738 19.3318 17.6045 19.4653 17.4399 19.4653H6.83281C6.66815 19.4653 6.53467 19.3318 6.53467 19.1672V5.6442C6.53467 5.47954 6.66815 5.34606 6.83281 5.34606H17.4399C17.6045 5.34606 17.738 5.47954 17.738 5.6442V19.1672Z" fill="white"/>
<g filter="url(#filter1_i_3004_10770)">
<path d="M15.9647 5.30483C15.9647 5.63416 15.6977 5.90112 15.3684 5.90112H8.80869C8.47937 5.90112 8.2124 5.63416 8.2124 5.30483V3.59627C8.2124 3.26695 8.47937 2.99998 8.80869 2.99998H15.3684C15.6977 2.99998 15.9647 3.26695 15.9647 3.59627V5.30483Z" fill="#C6C6C6"/>
</g>
<path d="M16.7974 8.00532C16.7974 8.17483 16.6599 8.31226 16.4904 8.31226H8.09796C7.92844 8.31226 7.79102 8.17483 7.79102 8.00532C7.79102 7.8358 7.92844 7.69837 8.09796 7.69837H16.4904C16.6599 7.69837 16.7974 7.8358 16.7974 8.00532Z" fill="#555555"/>
<path d="M16.7974 10.133C16.7974 10.3025 16.6599 10.4399 16.4904 10.4399H8.09796C7.92844 10.4399 7.79102 10.3025 7.79102 10.133C7.79102 9.96348 7.92844 9.82606 8.09796 9.82606H16.4904C16.6599 9.82606 16.7974 9.96348 16.7974 10.133Z" fill="#555555"/>
<path d="M12.2942 12.2607C12.2942 12.4302 12.1568 12.5676 11.9872 12.5676H8.09796C7.92844 12.5676 7.79102 12.4302 7.79102 12.2607C7.79102 12.0912 7.92844 11.9537 8.09796 11.9537H11.9872C12.1568 11.9537 12.2942 12.0912 12.2942 12.2607Z" fill="#555555"/>
<defs>
<filter id="filter0_i_3004_10770" x="5" y="3.50428" width="14.1194" height="17.4957" filterUnits="userSpaceOnUse" color-interpolation-filters="sRGB">
<feFlood flood-opacity="0" result="BackgroundImageFix"/>
<feBlend mode="normal" in="SourceGraphic" in2="BackgroundImageFix" result="shape"/>
<feColorMatrix in="SourceAlpha" type="matrix" values="0 0 0 0 0 0 0 0 0 0 0 0 0 0 0 0 0 0 127 0" result="hardAlpha"/>
<feOffset dy="-0.613881"/>
<feGaussianBlur stdDeviation="0.54482"/>
<feComposite in2="hardAlpha" operator="arithmetic" k2="-1" k3="1"/>
<feColorMatrix type="matrix" values="0 0 0 0 0.468132 0 0 0 0 0.224703 0 0 0 0 0 0 0 0 0.15 0"/>
<feBlend mode="normal" in2="shape" result="effect1_innerShadow_3004_10770"/>
</filter>
<filter id="filter1_i_3004_10770" x="8.2124" y="2.38612" width="7.7522" height="3.515" filterUnits="userSpaceOnUse" color-interpolation-filters="sRGB">
<feFlood flood-opacity="0" result="BackgroundImageFix"/>
<feBlend mode="normal" in="SourceGraphic" in2="BackgroundImageFix" result="shape"/>
<feColorMatrix in="SourceAlpha" type="matrix" values="0 0 0 0 0 0 0 0 0 0 0 0 0 0 0 0 0 0 127 0" result="hardAlpha"/>
<feOffset dy="-0.613881"/>
<feGaussianBlur stdDeviation="0.629228"/>
<feComposite in2="hardAlpha" operator="arithmetic" k2="-1" k3="1"/>
<feColorMatrix type="matrix" values="0 0 0 0 0 0 0 0 0 0 0 0 0 0 0 0 0 0 0.15 0"/>
<feBlend mode="normal" in2="shape" result="effect1_innerShadow_3004_10770"/>
</filter>
<linearGradient id="paint0_linear_3004_10770" x1="10.1216" y1="4.11826" x2="13.9977" y2="21" gradientUnits="userSpaceOnUse">
<stop stop-color="#FFC227"/>
<stop offset="1" stop-color="#FFA030"/>
</linearGradient>
</defs>
</svg>
