<svg width="18" height="18" viewBox="0 0 18 18" fill="none" xmlns="http://www.w3.org/2000/svg">
<path d="M15.4256 11.3293C16.7307 11.3293 17.7888 10.2713 17.7888 8.96615C17.7888 7.66103 16.7307 6.60303 15.4256 6.60303C14.1205 6.60303 13.0625 7.66103 13.0625 8.96615C13.0625 10.2713 14.1205 11.3293 15.4256 11.3293Z" fill="url(#paint0_radial_2803_7129)"/>
<path d="M15.4256 11.3293C16.7307 11.3293 17.7888 10.2713 17.7888 8.96615C17.7888 7.66103 16.7307 6.60303 15.4256 6.60303C14.1205 6.60303 13.0625 7.66103 13.0625 8.96615C13.0625 10.2713 14.1205 11.3293 15.4256 11.3293Z" fill="url(#paint1_linear_2803_7129)"/>
<path d="M2.28125 12.1499H5.30875V16.6999C5.30875 16.7828 5.27583 16.8623 5.21722 16.9209C5.15862 16.9795 5.07913 17.0124 4.99625 17.0124H2.59375C2.51087 17.0124 2.43138 16.9795 2.37278 16.9209C2.31417 16.8623 2.28125 16.7828 2.28125 16.6999V12.1499Z" fill="url(#paint2_radial_2803_7129)"/>
<path d="M2.28125 12.1499H5.30875V16.6999C5.30875 16.7828 5.27583 16.8623 5.21722 16.9209C5.15862 16.9795 5.07913 17.0124 4.99625 17.0124H2.59375C2.51087 17.0124 2.43138 16.9795 2.37278 16.9209C2.31417 16.8623 2.28125 16.7828 2.28125 16.6999V12.1499Z" fill="url(#paint3_linear_2803_7129)"/>
<g filter="url(#filter0_i_2803_7129)">
<path d="M0.339844 5.75635C0.339844 5.63203 0.38923 5.5128 0.477138 5.42489C0.565045 5.33698 0.684274 5.2876 0.808594 5.2876H6.59422V12.7126H0.808594C0.684274 12.7126 0.565045 12.6632 0.477138 12.5753C0.38923 12.4874 0.339844 12.3682 0.339844 12.2438V5.75635Z" fill="url(#paint4_linear_2803_7129)"/>
</g>
<g filter="url(#filter1_i_2803_7129)">
<path d="M12.8869 2.59863C10.885 3.84863 8.81437 5.08926 6.59375 5.28426V12.7124H6.69125C8.875 12.9343 10.9138 14.1561 12.8869 15.3886L13.5944 15.2924V12.7118C13.7179 12.7106 13.836 12.6607 13.923 12.5729C14.01 12.4851 14.0588 12.3666 14.0588 12.243V5.75738C14.0588 5.63382 14.01 5.51525 13.923 5.42746C13.836 5.33968 13.7179 5.28979 13.5944 5.28863V2.69426L12.8869 2.59863Z" fill="url(#paint5_radial_2803_7129)"/>
</g>
<g filter="url(#filter2_i_2803_7129)">
<path d="M16.4219 2.83381C16.4219 1.77653 15.5649 0.919434 14.5078 0.919434C13.4507 0.919434 12.5938 1.77653 12.5938 2.83381V15.0988C12.5938 16.1561 13.4507 17.0132 14.5078 17.0132C15.5649 17.0132 16.4219 16.1561 16.4219 15.0988V2.83381Z" fill="url(#paint6_linear_2803_7129)"/>
<path d="M16.4219 2.83381C16.4219 1.77653 15.5649 0.919434 14.5078 0.919434C13.4507 0.919434 12.5938 1.77653 12.5938 2.83381V15.0988C12.5938 16.1561 13.4507 17.0132 14.5078 17.0132C15.5649 17.0132 16.4219 16.1561 16.4219 15.0988V2.83381Z" fill="url(#paint7_radial_2803_7129)"/>
</g>
<defs>
<filter id="filter0_i_2803_7129" x="0.339844" y="4.0376" width="6.41016" height="8.6748" filterUnits="userSpaceOnUse" color-interpolation-filters="sRGB">
<feFlood flood-opacity="0" result="BackgroundImageFix"/>
<feBlend mode="normal" in="SourceGraphic" in2="BackgroundImageFix" result="shape"/>
<feColorMatrix in="SourceAlpha" type="matrix" values="0 0 0 0 0 0 0 0 0 0 0 0 0 0 0 0 0 0 127 0" result="hardAlpha"/>
<feOffset dx="0.15625" dy="-1.25"/>
<feGaussianBlur stdDeviation="0.9375"/>
<feComposite in2="hardAlpha" operator="arithmetic" k2="-1" k3="1"/>
<feColorMatrix type="matrix" values="0 0 0 0 0.698039 0 0 0 0 0.160784 0 0 0 0 0.352941 0 0 0 1 0"/>
<feBlend mode="normal" in2="shape" result="effect1_innerShadow_2803_7129"/>
</filter>
<filter id="filter1_i_2803_7129" x="6.59375" y="0.723633" width="7.46484" height="14.665" filterUnits="userSpaceOnUse" color-interpolation-filters="sRGB">
<feFlood flood-opacity="0" result="BackgroundImageFix"/>
<feBlend mode="normal" in="SourceGraphic" in2="BackgroundImageFix" result="shape"/>
<feColorMatrix in="SourceAlpha" type="matrix" values="0 0 0 0 0 0 0 0 0 0 0 0 0 0 0 0 0 0 127 0" result="hardAlpha"/>
<feOffset dy="-2.5"/>
<feGaussianBlur stdDeviation="0.9375"/>
<feComposite in2="hardAlpha" operator="arithmetic" k2="-1" k3="1"/>
<feColorMatrix type="matrix" values="0 0 0 0 0.717647 0 0 0 0 0.65098 0 0 0 0 0.827451 0 0 0 1 0"/>
<feBlend mode="normal" in2="shape" result="effect1_innerShadow_2803_7129"/>
</filter>
<filter id="filter2_i_2803_7129" x="12.5938" y="0.294434" width="4.14062" height="16.7188" filterUnits="userSpaceOnUse" color-interpolation-filters="sRGB">
<feFlood flood-opacity="0" result="BackgroundImageFix"/>
<feBlend mode="normal" in="SourceGraphic" in2="BackgroundImageFix" result="shape"/>
<feColorMatrix in="SourceAlpha" type="matrix" values="0 0 0 0 0 0 0 0 0 0 0 0 0 0 0 0 0 0 127 0" result="hardAlpha"/>
<feOffset dx="0.3125" dy="-0.625"/>
<feGaussianBlur stdDeviation="0.625"/>
<feComposite in2="hardAlpha" operator="arithmetic" k2="-1" k3="1"/>
<feColorMatrix type="matrix" values="0 0 0 0 0.698039 0 0 0 0 0.164706 0 0 0 0 0.372549 0 0 0 1 0"/>
<feBlend mode="normal" in2="shape" result="effect1_innerShadow_2803_7129"/>
</filter>
<radialGradient id="paint0_radial_2803_7129" cx="0" cy="0" r="1" gradientUnits="userSpaceOnUse" gradientTransform="translate(17.5544 8.16553) rotate(143.556) scale(1.57817 1.52358)">
<stop offset="0.363" stop-color="#6E6279"/>
<stop offset="1" stop-color="#5A4C67"/>
</radialGradient>
<linearGradient id="paint1_linear_2803_7129" x1="16.3437" y1="11.3293" x2="16.6562" y2="9.14178" gradientUnits="userSpaceOnUse">
<stop offset="0.306" stop-color="#3A3141"/>
<stop offset="1" stop-color="#3A3141" stop-opacity="0"/>
</linearGradient>
<radialGradient id="paint2_radial_2803_7129" cx="0" cy="0" r="1" gradientUnits="userSpaceOnUse" gradientTransform="translate(3.795 16.6812) rotate(-90) scale(4.0625 4.52009)">
<stop offset="0.429" stop-color="#C0B2D4"/>
<stop offset="1" stop-color="#B4A0BC"/>
</radialGradient>
<linearGradient id="paint3_linear_2803_7129" x1="3.795" y1="17.013" x2="3.795" y2="15.978" gradientUnits="userSpaceOnUse">
<stop stop-color="#B5A4D2"/>
<stop offset="1" stop-color="#B5A4D2" stop-opacity="0"/>
</linearGradient>
<linearGradient id="paint4_linear_2803_7129" x1="0.601719" y1="10.0407" x2="7.04734" y2="10.0407" gradientUnits="userSpaceOnUse">
<stop stop-color="#F44065"/>
<stop offset="1" stop-color="#D52E84"/>
</linearGradient>
<radialGradient id="paint5_radial_2803_7129" cx="0" cy="0" r="1" gradientUnits="userSpaceOnUse" gradientTransform="translate(7.35937 3.63426) rotate(69.2417) scale(10.3601 10.986)">
<stop offset="0.253" stop-color="#CFCCD5"/>
<stop offset="1" stop-color="#C1B6D2"/>
</radialGradient>
<linearGradient id="paint6_linear_2803_7129" x1="14.5081" y1="0.919434" x2="14.5081" y2="17.0132" gradientUnits="userSpaceOnUse">
<stop stop-color="#F94E87"/>
<stop offset="1" stop-color="#D21F6B"/>
</linearGradient>
<radialGradient id="paint7_radial_2803_7129" cx="0" cy="0" r="1" gradientUnits="userSpaceOnUse" gradientTransform="translate(15.875 4.33756) rotate(90) scale(8.82812 2.10938)">
<stop offset="0.283" stop-color="#FF4F8A"/>
<stop offset="1" stop-color="#FF4F8A" stop-opacity="0"/>
</radialGradient>
</defs>
</svg>
