<svg width="24" height="24" viewBox="0 0 24 24" fill="none" xmlns="http://www.w3.org/2000/svg">
<g filter="url(#filter0_i_3004_10780)">
<path d="M14.6261 2C18.6987 2 22.0001 4.91378 22.0001 8.50808C22.0001 10.113 21.3417 11.5819 20.2506 12.7166L20.2467 12.7206C20.0613 12.9148 20.0411 13.2135 20.1983 13.431L21.5616 15.3159C21.726 15.5431 21.537 15.8564 21.2593 15.8169L21.147 15.801C19.8715 15.6198 18.6224 15.2859 17.4266 14.8068L17.3861 14.7905C17.2179 14.6935 17.0182 14.6682 16.8311 14.72C16.1349 14.9123 15.3943 15.0163 14.6261 15.0163C10.5536 15.0163 7.2522 12.1025 7.2522 8.50808C7.2522 4.91378 10.5536 2 14.6261 2Z" fill="white"/>
</g>
<path d="M16.9504 8.46451C16.9504 8.83063 17.2472 9.12744 17.6134 9.12744C17.9794 9.12744 18.2762 8.83063 18.2762 8.46451C18.2762 8.09838 17.9794 7.80157 17.6134 7.80157C17.2472 7.80157 16.9504 8.09838 16.9504 8.46451Z" fill="#ACACB9"/>
<path d="M14.0271 8.46451C14.0271 8.83063 14.3239 9.12744 14.69 9.12744C15.0561 9.12744 15.3529 8.83063 15.3529 8.46451C15.3529 8.09838 15.0561 7.80157 14.69 7.80157C14.3239 7.80157 14.0271 8.09838 14.0271 8.46451Z" fill="#ACACB9"/>
<path d="M11.104 8.46451C11.104 8.83063 11.4008 9.12744 11.7669 9.12744C12.133 9.12744 12.4298 8.83063 12.4298 8.46451C12.4298 8.09838 12.133 7.80157 11.7669 7.80157C11.4008 7.80157 11.104 8.09838 11.104 8.46451Z" fill="#ACACB9"/>
<g filter="url(#filter1_i_3004_10780)">
<path d="M8.03655 10.7604C4.70264 10.7604 2 13.1458 2 16.0882C2 17.402 2.53901 18.6045 3.43221 19.5333L3.4354 19.5367C3.58709 19.6956 3.60365 19.9402 3.47499 20.1182L2.35893 21.6613C2.22441 21.8473 2.37908 22.1037 2.60647 22.0714L2.69842 22.0584C3.74249 21.91 4.76497 21.6367 5.74394 21.2446L5.77716 21.2312C5.91477 21.1518 6.07829 21.1311 6.23142 21.1734C6.80149 21.3309 7.40765 21.416 8.03655 21.416C11.3704 21.416 14.0731 19.0306 14.0731 16.0882C14.0731 13.1458 11.3704 10.7604 8.03655 10.7604Z" fill="#008CFF"/>
</g>
<path d="M6.1339 16.0523C6.1339 16.3519 5.89098 16.595 5.59119 16.595C5.2915 16.595 5.04858 16.3519 5.04858 16.0523C5.04858 15.7526 5.2915 15.5096 5.59119 15.5096C5.89098 15.5096 6.1339 15.7526 6.1339 16.0523Z" fill="white"/>
<path d="M8.52697 16.0523C8.52697 16.3519 8.28405 16.595 7.98426 16.595C7.68457 16.595 7.44165 16.3519 7.44165 16.0523C7.44165 15.7526 7.68457 15.5096 7.98426 15.5096C8.28405 15.5096 8.52697 15.7526 8.52697 16.0523Z" fill="white"/>
<path d="M10.92 16.0523C10.92 16.3519 10.6771 16.595 10.3773 16.595C10.0776 16.595 9.83472 16.3519 9.83472 16.0523C9.83472 15.7526 10.0776 15.5096 10.3773 15.5096C10.6771 15.5096 10.92 15.7526 10.92 16.0523Z" fill="white"/>
<defs>
<filter id="filter0_i_3004_10780" x="7.2522" y="1.36473" width="14.7478" height="14.4556" filterUnits="userSpaceOnUse" color-interpolation-filters="sRGB">
<feFlood flood-opacity="0" result="BackgroundImageFix"/>
<feBlend mode="normal" in="SourceGraphic" in2="BackgroundImageFix" result="shape"/>
<feColorMatrix in="SourceAlpha" type="matrix" values="0 0 0 0 0 0 0 0 0 0 0 0 0 0 0 0 0 0 127 0" result="hardAlpha"/>
<feOffset dy="-0.635271"/>
<feGaussianBlur stdDeviation="0.865557"/>
<feComposite in2="hardAlpha" operator="arithmetic" k2="-1" k3="1"/>
<feColorMatrix type="matrix" values="0 0 0 0 0 0 0 0 0 0 0 0 0 0 0 0 0 0 0.25 0"/>
<feBlend mode="normal" in2="shape" result="effect1_innerShadow_3004_10780"/>
</filter>
<filter id="filter1_i_3004_10780" x="2" y="10.1252" width="12.073" height="11.949" filterUnits="userSpaceOnUse" color-interpolation-filters="sRGB">
<feFlood flood-opacity="0" result="BackgroundImageFix"/>
<feBlend mode="normal" in="SourceGraphic" in2="BackgroundImageFix" result="shape"/>
<feColorMatrix in="SourceAlpha" type="matrix" values="0 0 0 0 0 0 0 0 0 0 0 0 0 0 0 0 0 0 127 0" result="hardAlpha"/>
<feOffset dy="-0.635271"/>
<feGaussianBlur stdDeviation="0.865557"/>
<feComposite in2="hardAlpha" operator="arithmetic" k2="-1" k3="1"/>
<feColorMatrix type="matrix" values="0 0 0 0 0 0 0 0 0 0 0 0 0 0 0 0 0 0 0.25 0"/>
<feBlend mode="normal" in2="shape" result="effect1_innerShadow_3004_10780"/>
</filter>
</defs>
</svg>
