<svg width="24" height="24" viewBox="0 0 24 24" fill="none" xmlns="http://www.w3.org/2000/svg">
<g filter="url(#filter0_i_3004_10773)">
<path d="M8.78099 5.90823C8.78099 5.90823 5.27153 4.1184 2.4626 10.8125L2.31003 11.2207C2.18258 11.5618 2.08703 11.9144 2.03137 12.2745C2.01252 12.396 2 12.5084 2 12.5911C2 14.2521 3.21932 15.0517 4.48456 15.1729C6.13179 15.3307 7.48075 13.8264 7.48075 12.1654C7.48075 11.8583 7.43467 11.562 7.34937 11.2829L8.78099 5.90823Z" fill="url(#paint0_linear_3004_10773)"/>
</g>
<g filter="url(#filter1_i_3004_10773)">
<path d="M15.219 5.95901C15.219 5.95901 18.7285 4.16918 21.5374 10.8633L21.6899 11.2715C21.8174 11.6126 21.913 11.9652 21.9686 12.3253C21.9875 12.4468 22 12.5592 22 12.6418C22 14.3029 20.7807 15.1025 19.5154 15.2237C17.8682 15.3815 16.5192 13.8772 16.5192 12.2162C16.5192 11.9091 16.5653 11.6128 16.6506 11.3337L15.219 5.95901Z" fill="url(#paint1_linear_3004_10773)"/>
</g>
<g filter="url(#filter2_i_3004_10773)">
<path d="M18.7172 11.7677C18.5838 11.5569 18.5165 11.3217 18.5138 11.0837L18.5138 11.0798C18.4741 7.72869 15.6195 5.04547 12.1378 5.08668C8.92658 5.12469 6.30383 7.46708 5.94676 10.46C5.90827 10.7827 5.77779 11.0921 5.56786 11.367C4.81739 12.3495 4.38866 13.5137 4.40339 14.758C4.4442 18.2057 7.85278 19.3529 12.0401 19.3033C16.2274 19.2538 19.6079 18.0263 19.5671 14.5785C19.5551 13.5634 19.2492 12.6087 18.7172 11.7677Z" fill="url(#paint2_radial_3004_10773)"/>
</g>
<g filter="url(#filter3_i_3004_10773)">
<path d="M10.1753 13.1897C10.1753 13.9598 9.76292 14.3286 9.25416 14.3286C8.74546 14.3286 8.33301 13.9598 8.33301 13.1897C8.33301 12.4197 8.74546 11.7954 9.25416 11.7954C9.76292 11.7954 10.1753 12.4197 10.1753 13.1897Z" fill="#3A2D2F"/>
</g>
<g filter="url(#filter4_i_3004_10773)">
<path d="M15.6741 13.1897C15.6741 13.9598 15.2617 14.3286 14.7529 14.3286C14.2442 14.3286 13.8318 13.9598 13.8318 13.1897C13.8318 12.4197 14.2442 11.7954 14.7529 11.7954C15.2617 11.7954 15.6741 12.4197 15.6741 13.1897Z" fill="#3A2D2F"/>
</g>
<path d="M11.9518 16.5913C11.8497 16.5913 11.7668 16.4847 11.7668 16.3532V14.8568C11.7668 14.7253 11.8497 14.6187 11.9518 14.6187C12.0539 14.6187 12.1367 14.7253 12.1367 14.8568V16.3532C12.1367 16.4847 12.0539 16.5913 11.9518 16.5913Z" fill="#A28F80"/>
<g filter="url(#filter5_i_3004_10773)">
<path d="M12.2953 15.4503L12.8863 14.7659C13.1422 14.4696 12.9371 14.0022 12.5512 14.0022H11.3524C10.9635 14.0022 10.7595 14.4758 11.0214 14.7707L11.6293 15.4551C11.8085 15.6568 12.1188 15.6546 12.2953 15.4503Z" fill="#3A2D2F"/>
</g>
<defs>
<filter id="filter0_i_3004_10773" x="2" y="4.76977" width="6.78101" height="10.4146" filterUnits="userSpaceOnUse" color-interpolation-filters="sRGB">
<feFlood flood-opacity="0" result="BackgroundImageFix"/>
<feBlend mode="normal" in="SourceGraphic" in2="BackgroundImageFix" result="shape"/>
<feColorMatrix in="SourceAlpha" type="matrix" values="0 0 0 0 0 0 0 0 0 0 0 0 0 0 0 0 0 0 127 0" result="hardAlpha"/>
<feOffset dy="-0.921151"/>
<feGaussianBlur stdDeviation="0.921151"/>
<feComposite in2="hardAlpha" operator="arithmetic" k2="-1" k3="1"/>
<feColorMatrix type="matrix" values="0 0 0 0 0 0 0 0 0 0 0 0 0 0 0 0 0 0 0.25 0"/>
<feBlend mode="normal" in2="shape" result="effect1_innerShadow_3004_10773"/>
</filter>
<filter id="filter1_i_3004_10773" x="15.219" y="4.82055" width="6.78101" height="10.4146" filterUnits="userSpaceOnUse" color-interpolation-filters="sRGB">
<feFlood flood-opacity="0" result="BackgroundImageFix"/>
<feBlend mode="normal" in="SourceGraphic" in2="BackgroundImageFix" result="shape"/>
<feColorMatrix in="SourceAlpha" type="matrix" values="0 0 0 0 0 0 0 0 0 0 0 0 0 0 0 0 0 0 127 0" result="hardAlpha"/>
<feOffset dy="-0.921151"/>
<feGaussianBlur stdDeviation="0.921151"/>
<feComposite in2="hardAlpha" operator="arithmetic" k2="-1" k3="1"/>
<feColorMatrix type="matrix" values="0 0 0 0 0 0 0 0 0 0 0 0 0 0 0 0 0 0 0.25 0"/>
<feBlend mode="normal" in2="shape" result="effect1_innerShadow_3004_10773"/>
</filter>
<filter id="filter2_i_3004_10773" x="4.40308" y="3.93474" width="15.1643" height="15.3702" filterUnits="userSpaceOnUse" color-interpolation-filters="sRGB">
<feFlood flood-opacity="0" result="BackgroundImageFix"/>
<feBlend mode="normal" in="SourceGraphic" in2="BackgroundImageFix" result="shape"/>
<feColorMatrix in="SourceAlpha" type="matrix" values="0 0 0 0 0 0 0 0 0 0 0 0 0 0 0 0 0 0 127 0" result="hardAlpha"/>
<feOffset dy="-1.15144"/>
<feGaussianBlur stdDeviation="0.690863"/>
<feComposite in2="hardAlpha" operator="arithmetic" k2="-1" k3="1"/>
<feColorMatrix type="matrix" values="0 0 0 0 0.301961 0 0 0 0 0.215686 0 0 0 0 0.223529 0 0 0 0.25 0"/>
<feBlend mode="normal" in2="shape" result="effect1_innerShadow_3004_10773"/>
</filter>
<filter id="filter3_i_3004_10773" x="8.33301" y="11.3348" width="1.84229" height="2.99378" filterUnits="userSpaceOnUse" color-interpolation-filters="sRGB">
<feFlood flood-opacity="0" result="BackgroundImageFix"/>
<feBlend mode="normal" in="SourceGraphic" in2="BackgroundImageFix" result="shape"/>
<feColorMatrix in="SourceAlpha" type="matrix" values="0 0 0 0 0 0 0 0 0 0 0 0 0 0 0 0 0 0 127 0" result="hardAlpha"/>
<feOffset dy="-0.460575"/>
<feGaussianBlur stdDeviation="0.230288"/>
<feComposite in2="hardAlpha" operator="arithmetic" k2="-1" k3="1"/>
<feColorMatrix type="matrix" values="0 0 0 0 0 0 0 0 0 0 0 0 0 0 0 0 0 0 0.25 0"/>
<feBlend mode="normal" in2="shape" result="effect1_innerShadow_3004_10773"/>
</filter>
<filter id="filter4_i_3004_10773" x="13.8318" y="11.3348" width="1.84229" height="2.99378" filterUnits="userSpaceOnUse" color-interpolation-filters="sRGB">
<feFlood flood-opacity="0" result="BackgroundImageFix"/>
<feBlend mode="normal" in="SourceGraphic" in2="BackgroundImageFix" result="shape"/>
<feColorMatrix in="SourceAlpha" type="matrix" values="0 0 0 0 0 0 0 0 0 0 0 0 0 0 0 0 0 0 127 0" result="hardAlpha"/>
<feOffset dy="-0.460575"/>
<feGaussianBlur stdDeviation="0.230288"/>
<feComposite in2="hardAlpha" operator="arithmetic" k2="-1" k3="1"/>
<feColorMatrix type="matrix" values="0 0 0 0 0 0 0 0 0 0 0 0 0 0 0 0 0 0 0.25 0"/>
<feBlend mode="normal" in2="shape" result="effect1_innerShadow_3004_10773"/>
</filter>
<filter id="filter5_i_3004_10773" x="10.9038" y="13.5416" width="2.09595" height="2.06336" filterUnits="userSpaceOnUse" color-interpolation-filters="sRGB">
<feFlood flood-opacity="0" result="BackgroundImageFix"/>
<feBlend mode="normal" in="SourceGraphic" in2="BackgroundImageFix" result="shape"/>
<feColorMatrix in="SourceAlpha" type="matrix" values="0 0 0 0 0 0 0 0 0 0 0 0 0 0 0 0 0 0 127 0" result="hardAlpha"/>
<feOffset dy="-0.460575"/>
<feGaussianBlur stdDeviation="0.230288"/>
<feComposite in2="hardAlpha" operator="arithmetic" k2="-1" k3="1"/>
<feColorMatrix type="matrix" values="0 0 0 0 0 0 0 0 0 0 0 0 0 0 0 0 0 0 0.25 0"/>
<feBlend mode="normal" in2="shape" result="effect1_innerShadow_3004_10773"/>
</filter>
<linearGradient id="paint0_linear_3004_10773" x1="5.39049" y1="5.69094" x2="5.39049" y2="15.1843" gradientUnits="userSpaceOnUse">
<stop stop-color="#685150"/>
<stop offset="1" stop-color="#4D3739"/>
</linearGradient>
<linearGradient id="paint1_linear_3004_10773" x1="18.6095" y1="5.74172" x2="18.6095" y2="15.2351" gradientUnits="userSpaceOnUse">
<stop stop-color="#685150"/>
<stop offset="1" stop-color="#4D3739"/>
</linearGradient>
<radialGradient id="paint2_radial_3004_10773" cx="0" cy="0" r="1" gradientUnits="userSpaceOnUse" gradientTransform="translate(11.9024 7.76354) rotate(90.9645) scale(17.1013 18.2445)">
<stop stop-color="#FFF1D6"/>
<stop offset="1" stop-color="#FFCF96"/>
</radialGradient>
</defs>
</svg>
