<svg width="24" height="24" viewBox="0 0 24 24" fill="none" xmlns="http://www.w3.org/2000/svg">
<g filter="url(#filter0_i_3004_10776)">
<path d="M10.6022 15.4205C10.6264 12.3396 11.4967 11.3935 13.0198 10.4474C14.0593 9.79245 14.833 8.96766 14.833 7.75472C14.833 6.39623 13.7934 5.52291 12.4637 5.52291C11.6713 5.52291 10.8996 5.85655 10.4416 6.54435C9.98882 7.2243 9.37843 7.92453 8.56153 7.92453C7.70481 7.92453 6.98646 7.20426 7.23897 6.3856C7.92949 4.14688 10.0265 3 12.4879 3C15.7516 3 18 4.81941 18 7.7062C18 9.67116 17.0088 10.9569 15.4374 11.903C14.0352 12.752 13.4549 13.6011 13.4308 15.4205C13.4308 15.5411 13.333 15.6388 13.2124 15.6388H10.8205C10.6999 15.6388 10.6022 15.5411 10.6022 15.4205ZM12.1011 21C11.0615 21 10.2154 20.1509 10.2154 19.1078C10.2154 18.0889 11.0615 17.2399 12.1011 17.2399C13.0923 17.2399 13.9626 18.0889 13.9626 19.1078C13.9626 20.1509 13.0923 21 12.1011 21Z" fill="url(#paint0_linear_3004_10776)"/>
</g>
<defs>
<filter id="filter0_i_3004_10776" x="7.18774" y="2" width="10.8123" height="19" filterUnits="userSpaceOnUse" color-interpolation-filters="sRGB">
<feFlood flood-opacity="0" result="BackgroundImageFix"/>
<feBlend mode="normal" in="SourceGraphic" in2="BackgroundImageFix" result="shape"/>
<feColorMatrix in="SourceAlpha" type="matrix" values="0 0 0 0 0 0 0 0 0 0 0 0 0 0 0 0 0 0 127 0" result="hardAlpha"/>
<feOffset dy="-1"/>
<feGaussianBlur stdDeviation="0.65"/>
<feComposite in2="hardAlpha" operator="arithmetic" k2="-1" k3="1"/>
<feColorMatrix type="matrix" values="0 0 0 0 0 0 0 0 0 0 0 0 0 0 0 0 0 0 0.2 0"/>
<feBlend mode="normal" in2="shape" result="effect1_innerShadow_3004_10776"/>
</filter>
<linearGradient id="paint0_linear_3004_10776" x1="12.5" y1="3" x2="12.5" y2="21" gradientUnits="userSpaceOnUse">
<stop stop-color="#ED4B4B"/>
<stop offset="1" stop-color="#A21313"/>
</linearGradient>
</defs>
</svg>
